<?xml version="1.0" standalone="no"?>
<!DOCTYPE svg PUBLIC "-//W3C//DTD SVG 20010904//EN"
 "http://www.w3.org/TR/2001/REC-SVG-20010904/DTD/svg10.dtd">
<svg version="1.0" xmlns="http://www.w3.org/2000/svg"
 width="300.000000pt" height="300.000000pt" viewBox="0 0 300.000000 300.000000"
 preserveAspectRatio="xMidYMid meet">
<metadata>
Created by potrace 1.10, written by Peter Selinger 2001-2011
</metadata>
<g transform="translate(0.000000,300.000000) scale(0.100000,-0.100000)"
fill="#000000" stroke="none">
<path d="M642 1499 l3 -761 83 -1 82 -2 0 683 0 683 443 -3 442 -3 78 -28
c159 -56 282 -162 351 -302 163 -328 3 -708 -349 -832 l-80 -28 -357 0 -358 0
0 -85 0 -85 382 5 383 5 80 28 c259 91 450 297 511 553 22 93 22 258 -1 349
-69 277 -285 495 -560 565 -73 19 -112 20 -607 20 l-528 0 2 -761z m890 731
c2 -6 48 -12 103 -14 261 -9 497 -168 611 -411 54 -117 83 -264 52 -266 -7 0
-3 -4 8 -9 16 -6 20 -15 17 -34 -3 -14 -8 -26 -12 -26 -4 0 -5 -17 -3 -39 5
-48 -29 -174 -67 -249 -96 -191 -270 -330 -475 -382 -83 -21 -221 -27 -231
-10 -8 13 -35 13 -35 0 0 -5 7 -10 15 -10 8 0 15 -4 15 -10 0 -13 -47 -13 -52
1 -2 6 -81 11 -228 12 l-225 2 0 35 0 35 270 1 c149 1 303 5 343 8 123 10 311
85 313 124 0 11 2 12 6 4 3 -9 13 -5 35 13 16 14 35 25 41 25 7 0 6 4 -3 10
-13 8 -13 10 2 10 21 0 98 107 138 192 30 64 64 191 63 237 -1 13 -7 27 -15
32 -12 8 -11 10 11 13 14 2 26 16 13 16 -6 0 -14 17 -18 38 -11 67 -36 146
-62 197 -39 78 -101 162 -125 169 -18 5 -20 8 -7 16 9 6 10 10 3 10 -6 0 -25
11 -41 25 -22 18 -32 22 -35 13 -3 -8 -6 -6 -6 5 -1 26 -148 94 -246 113 -101
19 -853 21 -889 2 -44 -24 -45 -30 -46 -310 0 -147 -4 -269 -9 -272 -15 -10
-18 -72 -4 -85 11 -9 13 -83 11 -344 l-3 -332 -37 -3 -38 -3 0 720 0 721 389
0 c249 0 392 -4 396 -10 3 -5 13 -10 21 -10 8 0 14 5 14 10 0 6 -7 10 -15 10
-8 0 -15 5 -15 10 0 13 47 13 52 0z m-751 -713 c-1 -4 -1 -16 -1 -27 0 -11 -4
-20 -10 -20 -5 0 -10 14 -10 31 0 17 5 29 11 27 6 -2 10 -7 10 -11z"/>
<path d="M1139 1883 c-179 -92 -179 -344 0 -435 l55 -28 236 0 c225 0 239 -1
264 -21 37 -29 37 -89 -1 -119 -27 -21 -34 -21 -293 -18 -244 3 -269 5 -319
25 -29 12 -62 30 -72 39 -28 26 -33 12 -15 -48 23 -79 64 -130 127 -159 51
-22 66 -24 286 -27 260 -4 320 4 382 48 83 61 121 178 87 275 -22 67 -55 106
-117 140 l-54 30 -247 3 -248 4 -20 25 c-26 33 -25 63 1 97 l21 27 273 -3 272
-3 72 -37 c43 -22 71 -31 71 -24 0 42 -33 115 -67 148 -80 76 -137 88 -422 88
-217 0 -217 0 -272 -27z m464 -20 c40 0 92 -9 117 -18 45 -16 113 -72 105 -86
-3 -4 -24 -1 -47 6 -58 17 -138 25 -138 13 0 -5 -7 -5 -17 0 -26 13 -224 13
-240 0 -7 -6 -13 -6 -13 -1 0 15 -151 3 -178 -14 -69 -43 -77 -123 -17 -183
l35 -35 253 -5 c278 -6 292 -8 341 -72 77 -101 45 -253 -66 -309 -32 -16 -55
-20 -109 -17 -50 2 -69 0 -69 -9 0 -7 -4 -13 -10 -13 -5 0 -10 6 -10 13 0 9
-3 8 -9 -2 -6 -9 -10 -10 -16 -2 -5 9 -10 9 -20 1 -9 -8 -14 -6 -19 5 -5 13
-10 14 -28 4 -14 -8 -61 -10 -142 -7 -155 6 -226 35 -249 101 -8 21 -11 20 59
2 44 -11 116 -15 311 -14 l254 1 33 28 c30 26 69 109 44 94 -6 -4 -8 1 -4 14
5 16 -2 31 -28 59 l-34 38 -252 5 c-226 4 -253 7 -265 23 -11 16 -13 16 -19 2
-3 -9 -10 -14 -15 -10 -6 3 -7 13 -4 22 5 13 2 15 -15 11 -15 -4 -22 -2 -22 8
0 8 6 14 13 15 6 0 2 4 -10 9 -38 15 -56 65 -51 141 3 58 8 74 34 106 56 69
82 78 229 78 75 0 133 4 138 10 4 6 11 4 17 -5 8 -12 10 -12 10 -1 0 11 3 11
15 1 12 -10 16 -9 22 6 6 15 8 16 10 4 3 -11 21 -15 76 -17z"/>
</g>
</svg>
